<?xml version="1.0" standalone="no"?>
<!DOCTYPE svg PUBLIC "-//W3C//DTD SVG 20010904//EN"
 "http://www.w3.org/TR/2001/REC-SVG-20010904/DTD/svg10.dtd">
<svg version="1.0" xmlns="http://www.w3.org/2000/svg"
 width="2364.000000pt" height="2364.000000pt" viewBox="0 0 2364.000000 2364.000000"
 preserveAspectRatio="xMidYMid meet">

<g transform="translate(0.000000,2364.000000) scale(0.100000,-0.100000)"
fill="#000000" stroke="none">
<path d="M11270 23619 c-3353 -157 -6464 -1722 -8594 -4324 -2187 -2671 -3089
-6151 -2481 -9569 490 -2754 1967 -5262 4150 -7050 2357 -1930 5349 -2867
8400 -2631 3207 248 6173 1800 8219 4300 2187 2673 3089 6151 2481 9569 -490
2753 -1967 5263 -4150 7050 -1866 1528 -4149 2445 -6550 2631 -450 34 -1041
44 -1475 24z m1315 -248 c611 -48 1073 -111 1586 -217 2047 -421 3950 -1400
5499 -2829 175 -162 566 -555 716 -720 1187 -1309 2061 -2868 2549 -4550 202
-696 342 -1435 409 -2160 37 -391 41 -507 41 -1075 0 -568 -4 -684 -41 -1075
-231 -2498 -1265 -4843 -2958 -6710 -150 -165 -541 -558 -716 -720 -1550
-1430 -3451 -2408 -5502 -2830 -514 -106 -998 -171 -1603 -217 -231 -18 -1259
-18 -1490 0 -605 46 -1089 111 -1603 217 -2020 416 -3896 1371 -5437 2769
-165 150 -558 541 -720 716 -1217 1319 -2113 2902 -2610 4615 -202 696 -342
1435 -409 2160 -37 391 -41 507 -41 1075 0 568 4 684 41 1075 231 2498 1265
4843 2958 6710 150 165 541 558 716 720 1550 1430 3451 2408 5502 2830 528
109 1091 184 1608 215 96 6 198 12 225 14 110 8 1149 -3 1280 -13z"/>
<path d="M11260 22909 c-1537 -81 -3000 -462 -4353 -1131 -1355 -670 -2548
-1601 -3538 -2758 -1426 -1669 -2328 -3740 -2578 -5920 -82 -716 -94 -1484
-35 -2200 172 -2083 922 -4059 2178 -5735 798 -1066 1796 -1992 2916 -2707
1425 -909 3012 -1473 4690 -1667 705 -82 1486 -94 2200 -35 1805 149 3522 727
5050 1702 1120 715 2118 1641 2916 2707 1336 1783 2087 3867 2204 6115 21 414
11 1018 -26 1460 -172 2084 -921 4057 -2178 5735 -1220 1629 -2879 2903 -4761
3655 -1146 458 -2324 714 -3585 780 -221 11 -881 11 -1100 -1z m-980 -1357
c474 -327 987 -779 1660 -1458 704 -712 1280 -1379 1855 -2149 275 -368 521
-735 498 -742 -5 -2 -406 116 -891 261 -485 146 -909 270 -942 277 -78 15
-275 6 -360 -16 -172 -46 -332 -138 -448 -257 -39 -40 -316 -356 -617 -703
-571 -659 -587 -679 -620 -810 -32 -128 -15 -331 46 -518 39 -123 155 -353
228 -453 32 -45 280 -357 551 -694 l493 -612 -929 -930 -929 -929 -210 213
c-417 425 -865 928 -1207 1358 -293 369 -632 856 -721 1035 -81 163 -140 358
-174 575 -24 158 -24 509 0 665 44 278 122 515 238 716 55 97 72 120 1554
2081 1165 1541 1148 1518 1196 1711 33 131 33 403 1 555 -74 343 -234 654
-481 931 l-66 74 90 -58 c50 -31 133 -87 185 -123z m4928 -5048 c350 -191 671
-387 1072 -658 1082 -729 1895 -1480 2210 -2039 l32 -58 -163 124 c-744 561
-1597 911 -2494 1023 -77 10 -141 18 -142 19 -1 0 -18 61 -37 135 -152 594
-465 1173 -890 1648 -29 32 158 -56 412 -194z m367 -1814 c857 -73 1650 -342
2345 -798 310 -203 533 -385 806 -657 413 -413 698 -809 954 -1330 282 -573
441 -1146 501 -1805 18 -196 15 -659 -5 -860 -105 -1052 -481 -1957 -1146
-2760 -133 -161 -469 -497 -630 -630 -813 -673 -1743 -1054 -2810 -1151 -172
-16 -623 -16 -805 0 -739 63 -1434 277 -2071 636 -164 93 -450 284 -600 400
l-110 86 895 894 896 894 25 -17 c14 -9 74 -44 133 -78 256 -147 560 -251 877
-301 161 -25 557 -25 718 0 550 87 1022 326 1408 711 385 386 623 856 711
1408 27 175 25 578 -5 752 -47 269 -113 478 -227 711 -128 263 -279 471 -491
682 -491 485 -1156 745 -1844 719 -552 -20 -1049 -204 -1485 -550 -65 -51
-670 -649 -1718 -1695 l-1618 -1616 -71 75 c-275 292 -573 689 -747 997 -131
231 -239 503 -283 707 -31 145 -31 377 0 491 28 103 87 224 145 300 64 85
2457 2471 2597 2590 813 693 1809 1108 2860 1194 151 12 654 13 795 1z m-8125
-202 c72 -187 167 -350 393 -671 348 -496 808 -1054 1345 -1632 67 -71 120
-130 118 -132 -1 -1 -24 6 -52 16 -75 29 -326 89 -444 106 -231 34 -536 30
-775 -11 -794 -134 -1476 -645 -1830 -1369 -114 -233 -180 -442 -227 -711 -30
-174 -32 -577 -5 -752 88 -552 326 -1022 711 -1408 384 -383 860 -624 1401
-709 142 -23 453 -31 600 -16 504 52 953 234 1345 546 47 37 907 890 1912
1894 l1828 1826 136 -135 c340 -338 490 -520 584 -714 117 -240 160 -473 160
-871 0 -206 -14 -329 -55 -482 -101 -382 -343 -797 -698 -1198 -178 -201
-2071 -2084 -2217 -2205 -516 -428 -1064 -732 -1686 -933 -506 -164 -988 -240
-1539 -240 -279 0 -436 10 -685 44 -835 115 -1635 442 -2305 941 -372 277
-764 670 -1040 1043 -490 661 -808 1434 -929 2255 -49 330 -65 827 -37 1130
79 869 351 1654 814 2358 305 461 743 924 1192 1257 518 386 1093 661 1734
830 91 24 177 43 190 42 20 -2 29 -16 61 -99z m-4351 -2992 c36 -274 97 -458
198 -600 l36 -50 -27 -135 c-75 -391 -91 -561 -90 -1021 0 -419 7 -521 64
-865 48 -291 135 -630 221 -867 16 -44 28 -82 26 -84 -1 -2 -41 29 -87 68
-478 403 -766 983 -867 1743 -22 166 -25 637 -5 800 59 483 197 924 453 1450
l54 110 6 -230 c4 -126 12 -270 18 -319z m17090 -40 c102 -83 280 -270 359
-377 275 -371 446 -824 519 -1374 21 -164 25 -637 5 -795 -63 -507 -195 -929
-466 -1485 l-44 -90 -1 175 c-2 460 -75 786 -218 983 l-35 48 26 137 c76 400
90 563 91 1012 0 412 -11 554 -65 875 -50 295 -110 532 -204 813 -25 72 -42
132 -39 132 3 0 36 -24 72 -54z m-8113 -5988 c237 -175 490 -331 747 -459 87
-44 135 -74 131 -81 -4 -6 -38 -49 -76 -97 -482 -600 -803 -1513 -1016 -2888
-20 -134 -39 -243 -42 -243 -3 0 -22 109 -42 243 -213 1375 -534 2288 -1016
2888 -38 48 -72 91 -76 97 -4 7 41 35 123 76 325 163 646 370 934 602 l78 63
62 -52 c34 -29 121 -96 193 -149z"/>
</g>
</svg>
